<svg xmlns="http://www.w3.org/2000/svg" viewBox="0 0 64 64">
  <defs>
    <radialGradient id="bg" cx="50%" cy="65%" r="70%">
      <stop offset="0%" stop-color="#ffb347"/>
      <stop offset="100%" stop-color="#d04810"/>
    </radialGradient>
    <clipPath id="cc"><circle cx="32" cy="32" r="30"/></clipPath>
    <clipPath id="top"><rect x="2" y="2" width="60" height="30"/></clipPath>
  </defs>
  <circle cx="32" cy="32" r="30" fill="url(#bg)"/>
  <rect x="2" y="32" width="60" height="30" fill="#a03008" opacity="0.28" clip-path="url(#cc)"/>
  <line x1="4" y1="32" x2="60" y2="32" stroke="white" stroke-width="2.5" stroke-linecap="round" opacity="0.9"/>
  <line x1="18" y1="41" x2="46" y2="41" stroke="white" stroke-width="2.5" stroke-linecap="round" opacity="0.55"/>
  <line x1="23" y1="49" x2="41" y2="49" stroke="white" stroke-width="1.8" stroke-linecap="round" opacity="0.35"/>
  <line x1="27" y1="56" x2="37" y2="56" stroke="white" stroke-width="1.2" stroke-linecap="round" opacity="0.2"/>
  <circle cx="32" cy="32" r="26" fill="white" opacity="0.97" clip-path="url(#top)"/>
  <polygon points="32,32 27,6 37,6"    fill="url(#bg)" clip-path="url(#top)"/>
  <polygon points="32,32 8,12 13,6"    fill="url(#bg)" clip-path="url(#top)"/>
  <polygon points="32,32 4,24 4,18"    fill="url(#bg)" clip-path="url(#top)"/>
  <polygon points="32,32 56,12 51,6"   fill="url(#bg)" clip-path="url(#top)"/>
  <polygon points="32,32 60,24 60,18"  fill="url(#bg)" clip-path="url(#top)"/>
  <circle cx="32" cy="32" r="6" fill="white" opacity="0.97" clip-path="url(#top)"/>
</svg>
